<?xml version="1.0" encoding="UTF-8" standalone="no"?>
<svg width="100" height="100" viewBox="0 0 100 100" xmlns="http://www.w3.org/2000/svg">
  <defs>
    <pattern id="grid" width="100" height="100" patternUnits="userSpaceOnUse">
      <rect width="100" height="100" fill="white"/>
      <path d="M 0,20 L 100,20" stroke="rgba(59, 130, 246, 0.1)" stroke-width="1"/>
      <path d="M 0,40 L 100,40" stroke="rgba(59, 130, 246, 0.1)" stroke-width="1"/>
      <path d="M 0,60 L 100,60" stroke="rgba(59, 130, 246, 0.1)" stroke-width="1"/>
      <path d="M 0,80 L 100,80" stroke="rgba(59, 130, 246, 0.1)" stroke-width="1"/>
      <path d="M 20,0 L 20,100" stroke="rgba(59, 130, 246, 0.1)" stroke-width="1"/>
      <path d="M 40,0 L 40,100" stroke="rgba(59, 130, 246, 0.1)" stroke-width="1"/>
      <path d="M 60,0 L 60,100" stroke="rgba(59, 130, 246, 0.1)" stroke-width="1"/>
      <path d="M 80,0 L 80,100" stroke="rgba(59, 130, 246, 0.1)" stroke-width="1"/>
      <circle cx="20" cy="20" r="1" fill="rgba(59, 130, 246, 0.2)"/>
      <circle cx="40" cy="20" r="1" fill="rgba(59, 130, 246, 0.2)"/>
      <circle cx="60" cy="20" r="1" fill="rgba(59, 130, 246, 0.2)"/>
      <circle cx="80" cy="20" r="1" fill="rgba(59, 130, 246, 0.2)"/>
      <circle cx="20" cy="40" r="1" fill="rgba(59, 130, 246, 0.2)"/>
      <circle cx="40" cy="40" r="1" fill="rgba(59, 130, 246, 0.2)"/>
      <circle cx="60" cy="40" r="1" fill="rgba(59, 130, 246, 0.2)"/>
      <circle cx="80" cy="40" r="1" fill="rgba(59, 130, 246, 0.2)"/>
      <circle cx="20" cy="60" r="1" fill="rgba(59, 130, 246, 0.2)"/>
      <circle cx="40" cy="60" r="1" fill="rgba(59, 130, 246, 0.2)"/>
      <circle cx="60" cy="60" r="1" fill="rgba(59, 130, 246, 0.2)"/>
      <circle cx="80" cy="60" r="1" fill="rgba(59, 130, 246, 0.2)"/>
      <circle cx="20" cy="80" r="1" fill="rgba(59, 130, 246, 0.2)"/>
      <circle cx="40" cy="80" r="1" fill="rgba(59, 130, 246, 0.2)"/>
      <circle cx="60" cy="80" r="1" fill="rgba(59, 130, 246, 0.2)"/>
      <circle cx="80" cy="80" r="1" fill="rgba(59, 130, 246, 0.2)"/>
    </pattern>
  </defs>
  <rect width="100%" height="100%" fill="url(#grid)" />
</svg>